Format : AVI
Format/Info : Audio Video Interleave
File size : 773 MiB
Duration : 1h 34mn
Overall bit rate : 1 148 Kbps
Writing library : VirtualDub build 32842/release

Video
ID : 0
Format : MPEG-4 Visual
Format profile : Advanced Simple@L5
Format settings, BVOP : 2
Format settings, QPel : No
Format settings, GMC : No warppoints
Format settings, Matrix : Default (H.263)
Muxing mode : Packed bitstream
Codec ID : XVID
Codec ID/Hint : XviD
Duration : 1h 34mn
Bit rate : 1 010 Kbps
Width : 608 pixels
Height : 336 pixels
Display aspect ratio : 16:9
Frame rate : 25.000 fps
Color space : YUV
Chroma subsampling : 4:2:0
Bit depth : 8 bits
Scan type : Progressive
Compression mode : Lossy
Bits/(Pixel*Frame) : 0.198
Stream size : 681 MiB (88%)
Writing library : XviD 64

Audio
ID : 1
Format : MPEG Audio
Format version : Version 1
Format profile : Layer 3
Mode : Joint stereo
Mode extension : MS Stereo
Codec ID : 55
Codec ID/Hint : MP3
Duration : 1h 34mn
Bit rate mode : Constant
Bit rate : 128 Kbps
Channel(s) : 2 channels
Sampling rate : 48.0 KHz
Compression mode : Lossy
Stream size : 86.2 MiB (11%)
Alignment : Aligned on interleaves
Interleave, duration : 40 ms (1.00 video frame)
Interleave, preload duration : 504 ms
Writing library : LAME3.97
Encoding settings : -m j -V 4 -q 2 -lowpass 17 -b 128





 
http://www.imdb.com/title/tt1653700/









Users: (34 votes) 2 reviews | Critics: 11 reviews


A soldier returning from the war in Afghanistan uncovers a conspiracy involving the intelligence services and a gang of drug dealers.

Director: Matthew Hope
Writers: Matthew Hope (screenplay), Matthew Hope (story), and 1 more credit »
Stars: Toby Kebbell, Brian Cox and Tony Curran




















Source Used



DVDR- EGEN



Enjoy





Greetz to IMAGiNE,Flawl3ss,DiLLoN,BDK,NOiR,TOXiC,THC,Ez,Rx,Boobyblue,TaRiQ786,BHRG